<svg width="26" height="15" viewBox="0 0 26 15" fill="none" xmlns="http://www.w3.org/2000/svg">
<path d="M1.0675 0.924341C1.41911 0.572833 1.89594 0.375366 2.39312 0.375366C2.89031 0.375366 3.36713 0.572833 3.71875 0.924341L13 10.2056L22.2812 0.924341C22.6349 0.582795 23.1085 0.393804 23.6001 0.398076C24.0917 0.402349 24.562 0.599541 24.9097 0.947181C25.2573 1.29482 25.4545 1.76509 25.4588 2.25671C25.463 2.74833 25.274 3.22196 24.9325 3.57559L14.3256 14.1825C13.974 14.534 13.4972 14.7314 13 14.7314C12.5028 14.7314 12.026 14.534 11.6744 14.1825L1.0675 3.57559C0.715991 3.22398 0.518524 2.74715 0.518524 2.24997C0.518524 1.75278 0.715991 1.27596 1.0675 0.924341Z" fill="#5081FF"/>
</svg>
