<svg width="30" height="30" viewBox="0 0 30 30" fill="none" xmlns="http://www.w3.org/2000/svg">
<path d="M13.0266 2.60344C13.5775 2.13512 14.2769 1.87798 15 1.87798C15.7231 1.87798 16.4225 2.13512 16.9734 2.60344L26.1141 10.3725C26.4505 10.6585 26.7208 11.0142 26.9061 11.415C27.0915 11.8159 27.1875 12.2522 27.1875 12.6938V24.8438C27.1875 25.4654 26.9406 26.0615 26.501 26.501C26.0615 26.9406 25.4654 27.1875 24.8438 27.1875H21.0938C20.4721 27.1875 19.876 26.9406 19.4365 26.501C18.9969 26.0615 18.75 25.4654 18.75 24.8438V18.75C18.75 18.2542 18.5536 17.7785 18.2038 17.4272C17.854 17.0758 17.3793 16.8772 16.8834 16.875H13.1156C12.62 16.8775 12.1455 17.0761 11.7959 17.4275C11.4463 17.7788 11.25 18.2543 11.25 18.75V24.8438C11.25 25.1515 11.1894 25.4563 11.0716 25.7407C10.9538 26.025 10.7812 26.2834 10.5635 26.501C10.3459 26.7187 10.0875 26.8913 9.80316 27.0091C9.51881 27.1269 9.21404 27.1875 8.90625 27.1875H5.15625C4.53465 27.1875 3.93851 26.9406 3.49897 26.501C3.05943 26.0615 2.8125 25.4654 2.8125 24.8438V12.6938C2.81252 12.2522 2.90854 11.8159 3.09388 11.415C3.27923 11.0142 3.54949 10.6585 3.88594 10.3725L13.0266 2.60344Z" fill="#A8ADA4"/>
</svg>
