<svg width="30" height="30" viewBox="0 0 30 30" fill="none" xmlns="http://www.w3.org/2000/svg">
<path d="M5 7.5C5 6.83696 5.26339 6.20107 5.73223 5.73223C6.20107 5.26339 6.83696 5 7.5 5H10C10.663 5 11.2989 5.26339 11.7678 5.73223C12.2366 6.20107 12.5 6.83696 12.5 7.5V8.75C12.5 9.41304 12.2366 10.0489 11.7678 10.5178C11.2989 10.9866 10.663 11.25 10 11.25H7.5C6.83696 11.25 6.20107 10.9866 5.73223 10.5178C5.26339 10.0489 5 9.41304 5 8.75V7.5ZM5 18.75C5 18.087 5.26339 17.4511 5.73223 16.9822C6.20107 16.5134 6.83696 16.25 7.5 16.25H10C10.663 16.25 11.2989 16.5134 11.7678 16.9822C12.2366 17.4511 12.5 18.087 12.5 18.75V22.5C12.5 23.163 12.2366 23.7989 11.7678 24.2678C11.2989 24.7366 10.663 25 10 25H7.5C6.83696 25 6.20107 24.7366 5.73223 24.2678C5.26339 23.7989 5 23.163 5 22.5V18.75ZM17.5 7.5C17.5 6.83696 17.7634 6.20107 18.2322 5.73223C18.7011 5.26339 19.337 5 20 5H22.5C23.163 5 23.7989 5.26339 24.2678 5.73223C24.7366 6.20107 25 6.83696 25 7.5V22.5C25 23.163 24.7366 23.7989 24.2678 24.2678C23.7989 24.7366 23.163 25 22.5 25H20C19.337 25 18.7011 24.7366 18.2322 24.2678C17.7634 23.7989 17.5 23.163 17.5 22.5V7.5Z" stroke="#A8ADA4" stroke-width="3.33333" stroke-linecap="round" stroke-linejoin="round"/>
</svg>
