<svg width="23" height="23" viewBox="0 0 23 23" fill="none" xmlns="http://www.w3.org/2000/svg">
<path d="M11.2464 0.500069V0.500027C11.0298 0.498519 10.8175 0.560264 10.6355 0.677687C10.4535 0.795111 10.3097 0.963105 10.2218 1.16106L10.22 1.16519L10.22 1.16518L7.72624 6.64768L7.61284 6.897L7.34169 6.93566L1.47721 7.77183C1.47714 7.77184 1.47707 7.77185 1.477 7.77186C0.556011 7.90434 0.170833 9.04465 0.831634 9.71347C0.831671 9.71351 0.831707 9.71354 0.831744 9.71358L5.16828 14.0932L5.34944 14.2762L5.30573 14.5299L4.2501 20.6574L4.24989 20.6586C4.22122 20.8227 4.22869 20.991 4.27179 21.1519C4.31489 21.3127 4.39259 21.4622 4.49944 21.59C4.6063 21.7177 4.73974 21.8206 4.89047 21.8914C5.04063 21.962 5.20432 21.999 5.37021 22C5.56456 21.9992 5.7553 21.9475 5.92345 21.85L5.92687 21.848L5.92687 21.848L11.0025 18.9586L11.2499 18.8178L11.4973 18.9587L16.573 21.85L16.5736 21.8503C16.7588 21.9561 16.9482 22.0017 17.1302 22.0019C17.296 22.0008 17.4596 21.9636 17.6097 21.8929C17.7601 21.8221 17.8933 21.7193 18 21.5918C18.1067 21.4642 18.1843 21.3149 18.2274 21.1543C18.2706 20.9937 18.2782 20.8257 18.2497 20.6618L18.2496 20.6612L17.194 14.5318L17.1503 14.2781L17.3314 14.0951L21.668 9.71546L11.2464 0.500069ZM11.2464 0.500069L11.2528 0.50003M11.2464 0.500069L11.2528 0.50003M11.2528 0.50003C11.4697 0.498743 11.6822 0.560871 11.8642 0.678773C12.0463 0.796676 12.1899 0.96521 12.2774 1.16365L12.2773 1.16366L12.2798 1.16899L14.7735 6.64962L14.8869 6.89888M11.2528 0.50003L14.8869 6.89888M14.8869 6.89888L15.158 6.93753M14.8869 6.89888L15.158 6.93753M15.158 6.93753L21.0225 7.77371C21.0226 7.77372 21.0227 7.77374 21.0228 7.77375M15.158 6.93753L21.0228 7.77375M21.0228 7.77375C21.9436 7.90626 22.3288 9.04628 21.6683 9.71511L21.0228 7.77375Z" fill="#FCFF65" stroke="#242721"/>
</svg>
