<svg width="251" height="389" viewBox="0 0 251 389" fill="none" xmlns="http://www.w3.org/2000/svg">
<circle cx="209.934" cy="64.717" r="29" transform="rotate(19.3678 209.934 64.717)" stroke="url(#paint0_linear_16_49)" stroke-width="6"/>
<path d="M1.94904 341.247C0.632522 342.253 0.38077 344.136 1.38673 345.452C2.39269 346.769 4.27543 347.021 5.59194 346.015L1.94904 341.247ZM161.015 223.479L162.837 225.862C164.121 224.881 164.397 223.058 163.461 221.741L161.015 223.479ZM104.28 143.645L102.51 141.223C101.184 142.192 100.883 144.045 101.834 145.383L104.28 143.645ZM172.86 96.153C173.115 94.5159 171.994 92.9823 170.357 92.7277L143.677 88.5784C142.04 88.3238 140.507 89.4446 140.252 91.0818C139.997 92.7189 141.118 94.2525 142.755 94.5071L166.47 98.1954L162.782 121.91C162.528 123.547 163.648 125.081 165.285 125.336C166.923 125.59 168.456 124.469 168.711 122.832L172.86 96.153ZM5.59194 346.015L25.2475 330.996L21.6046 326.228L1.94904 341.247L5.59194 346.015ZM64.5587 300.957L103.87 270.919L100.227 266.152L60.9158 296.19L64.5587 300.957ZM143.181 240.881L162.837 225.862L159.194 221.095L139.538 236.114L143.181 240.881ZM163.461 221.741L149.277 201.782L144.386 205.258L158.57 225.216L163.461 221.741ZM120.909 161.866L106.725 141.908L101.834 145.383L116.018 165.342L120.909 161.866ZM106.05 146.068L122.454 134.079L118.914 129.235L102.51 141.223L106.05 146.068ZM155.262 110.102L171.666 98.1141L168.126 93.2699L151.722 105.258L155.262 110.102Z" fill="url(#paint1_linear_16_49)"/>
<defs>
<linearGradient id="paint0_linear_16_49" x1="209.934" y1="32.717" x2="209.934" y2="96.717" gradientUnits="userSpaceOnUse">
<stop stop-color="#CFD8C7" stop-opacity="0"/>
<stop offset="1" stop-color="#777A74"/>
</linearGradient>
<linearGradient id="paint1_linear_16_49" x1="54.9504" y1="361.622" x2="150.792" y2="88.9765" gradientUnits="userSpaceOnUse">
<stop stop-color="#CFD8C7" stop-opacity="0"/>
<stop offset="1" stop-color="#777A74"/>
</linearGradient>
</defs>
</svg>
