<svg width="30" height="30" viewBox="0 0 30 30" fill="none" xmlns="http://www.w3.org/2000/svg">
<path d="M22.975 4.0625H8.51251C7.15001 4.0625 5.98751 5.0375 5.75001 6.3875L4.11251 15.7625C3.97501 16.5875 4.20001 17.425 4.72501 18.0625C5.26251 18.7 6.03751 19.0625 6.87501 19.0625H11.9125V22.5C11.9125 24.4 13.45 25.9375 15.45 25.9375C16.325 25.9375 17.1125 25.4125 17.4625 24.6L20.6375 17.1875H22.9875C24.625 17.1875 25.95 15.8625 25.95 14.225V7.0125C25.95 5.3875 24.625 4.0625 22.9875 4.0625H22.975ZM19.075 16.0625L15.7375 23.875C15.6875 23.9875 15.575 24.075 15.3375 24.075C14.475 24.075 13.7875 23.375 13.7875 22.5125V17.2H6.87501C6.58751 17.2 6.33751 17.0875 6.16251 16.875C6.07164 16.77 6.00631 16.6454 5.97161 16.511C5.93692 16.3765 5.9338 16.2359 5.96251 16.1L7.60001 6.725C7.67501 6.275 8.06251 5.95 8.52501 5.95H19.075V16.0625ZM24.0625 14.225C24.0625 14.825 23.575 15.3125 22.975 15.3125H20.9625V5.9375H22.975C23.575 5.9375 24.0625 6.425 24.0625 7.0125V14.225Z" fill="#CFD8C7"/>
</svg>
