<svg width="30" height="30" viewBox="0 0 30 30" fill="none" xmlns="http://www.w3.org/2000/svg">
<path d="M25.275 11.9375C24.7375 11.3 23.9625 10.9375 23.125 10.9375H18.0875V7.5C18.0875 5.6 16.55 4.0625 14.55 4.0625C13.675 4.0625 12.8875 4.5875 12.5375 5.4L9.3625 12.8125H7.025C5.3875 12.8125 4.0625 14.1375 4.0625 15.775V22.9875C4.0625 24.6125 5.4 25.9375 7.025 25.9375H21.475C22.8375 25.9375 24 24.9625 24.2375 23.6125L25.8875 14.2375C26.025 13.4125 25.8 12.575 25.2625 11.9375H25.275ZM7.025 24.0625C6.425 24.0625 5.9375 23.575 5.9375 22.9875V15.775C5.9375 15.175 6.425 14.6875 7.025 14.6875H9.0375V24.0625H7.025ZM22.4 23.2875C22.325 23.7375 21.9375 24.0625 21.475 24.0625H10.925V13.9375L14.2625 6.125C14.3125 6.0125 14.425 5.925 14.6625 5.925C15.525 5.925 16.2125 6.625 16.2125 7.4875V12.8H23.125C23.4125 12.8 23.6625 12.9125 23.8375 13.125C24.0125 13.3375 24.0875 13.6125 24.0375 13.9L22.3875 23.275L22.4 23.2875Z" fill="#CFD8C7"/>
</svg>
